<svg width="768" height="768" viewBox="0 0 800 800" fill="none" xmlns="http://www.w3.org/2000/svg">
	<path
		d="M498.9 584.5C500.8 587.6 502.4 591.3 504.6 593.9C508.8 598.8 513.8 602.9 519.6 606.4C519.1 605.5 518.7 604.7 518.2 603.9L457.1 409.9C484.2 432.2 521.2 452.2 568 470C593.7 480.5 613.4 490.7 627.1 500.6C624.9 497.1 622.3 493.9 619.5 491.1C606.5 478.1 582.9 464.6 548.7 450.7C501.9 433 464.9 412.9 437.8 390.6L498.9 584.5Z"
		fill="#B3E029" />
	<path d="M379.3 204.6C381.2 197.7 383.6 191.1 386.3 184.7L362.2 108.2H349L379.3 204.6Z" fill="#B3E029" />
	<path
		d="M741.9 172.8C758 202.2 766.1 235.6 766.1 273H659C659.7 279.1 660 285.5 660 292.3H785.4C785.4 254.9 777.3 221.5 761.2 192.1C751 173.6 738.1 157.6 722.4 144.4C729.8 153.1 736.3 162.5 741.9 172.8Z"
		fill="#B3E029" />
	<path
		d="M622.1 206.4C609.7 191.1 591.8 183.5 568.4 183.5C546.4 183.5 529.3 190 517 203C504.7 216 498.6 233.5 498.6 255.4C498.6 272.5 505.4 288 519.1 301.8C522.2 304.9 525.9 308.1 530.1 311.3C522 300.1 517.9 287.9 517.9 274.7C517.9 252.7 524 235.3 536.3 222.3C548.6 209.3 565.7 202.8 587.7 202.8C603 202.8 616 206.1 626.6 212.6C625.2 210.5 623.7 208.4 622.1 206.4Z"
		fill="#B3E029" />
	<path d="M297.3 304.1L285.1 257.5L226.9 479.7H251.3L297.3 304.1Z" fill="#B3E029" />
	<path
		d="M724.7 426.1C752 458 765.7 498.5 765.7 547.7C765.7 601.9 748.4 644.3 713.9 674.8C679.4 705.3 632.4 720.6 573.1 720.6C532.9 720.6 496.2 712.3 463.1 695.8C448.3 688.4 435 679.6 423.1 669.4C439.3 688.2 459.1 703.5 482.5 715.2C515.6 731.7 552.3 740 592.5 740C651.8 740 698.8 724.7 733.3 694.2C767.8 663.6 785 621.3 785 567C785 517.6 771.2 477 743.7 445C738.1 438.5 731.7 432.2 724.7 426.1Z"
		fill="#B3E029" />
	<path d="M367.9 584.5H199.5L166.1 712H58.4L52.4 731.3H185.5L218.9 603.8H375C372.3 597.5 370 591.1 367.9 584.5Z"
		fill="#B3E029" />
	<path
		d="M572.6 325.5C537.8 310.7 513.5 296.3 499.8 282.5C486.1 268.7 479.3 253.2 479.3 236.1C479.3 214.1 485.4 196.7 497.7 183.7C510 170.7 527.1 164.2 549.1 164.2C572.5 164.2 590.4 171.8 602.8 187.1C615.2 202.4 621.4 224.5 621.4 253.6H746.8C746.8 216.2 738.7 182.8 722.6 153.4C706.5 124 683.4 101.3 653.5 85.1C623.5 69.1 589.4 61 551.2 61C493.8 61 446.6 76.9 409.3 108.7C384.7 129.7 368.3 155.2 360 185.3L323.5 69.6H208.4L13.7 692.7H146.8L180.2 565.2H348.6C353.1 579.3 358.6 593.1 366.1 605.4C384.8 636.2 410.7 659.9 443.8 676.4C476.9 692.9 513.6 701.2 553.8 701.2C613.1 701.2 660.1 685.9 694.6 655.4C729.1 624.9 746.4 582.5 746.4 528.3C746.4 478.9 732.6 438.3 705.1 406.3C677.5 374.4 633.3 347.5 572.6 325.5ZM207.5 460.3L265.7 238.2L324 460.3H207.5ZM553.7 599C522 599 499.2 590.9 485.2 574.6C482.9 572 481.4 568.3 479.5 565.2L418.4 371.2C445.5 393.5 482.5 413.5 529.3 431.3C563.5 445.3 587.1 458.8 600.1 471.7C613.1 484.7 619.6 503.9 619.6 529.3C619.6 575.7 597.7 599 553.7 599Z"
		fill="#B3E029" />
	<path
		d="M569.665 332.402L569.852 332.482L570.044 332.551C630.121 354.325 672.984 380.652 699.413 411.19C725.554 441.609 738.9 480.382 738.9 528.3C738.9 580.765 722.236 620.958 689.632 649.781C656.859 678.754 611.809 693.7 553.8 693.7C514.664 693.7 479.123 685.628 447.146 669.688C415.283 653.804 390.458 631.069 372.511 601.508L372.507 601.502L372.503 601.495C365.434 589.902 360.15 576.722 355.745 562.92L354.079 557.7H348.6H180.2H174.412L172.945 563.299L141.012 685.2H23.9011L213.914 77.1H318.002L352.847 187.556L360.483 211.761L367.23 187.294C375.117 158.69 390.668 134.466 414.169 114.404C449.889 83.953 495.269 68.5 551.2 68.5C588.299 68.5 621.158 76.3554 649.95 91.7069C678.61 107.24 700.64 128.915 716.022 157.002C730.381 183.224 738.173 212.873 739.186 246.1H628.762C627.765 219.543 621.341 198.066 608.627 182.378C594.522 164.974 574.274 156.7 549.1 156.7C525.539 156.7 506.279 163.72 492.252 178.545C478.345 193.244 471.8 212.65 471.8 236.1C471.8 255.437 479.575 272.773 494.477 287.784C509.234 302.648 534.641 317.507 569.665 332.402ZM200.245 458.399L197.781 467.8H207.5H324H333.723L331.254 458.396L272.954 236.296L265.694 208.636L258.445 236.299L200.245 458.399ZM472.346 567.453L472.623 568.333L473.105 569.119C473.64 569.992 474.074 570.806 474.606 571.805C474.904 572.365 475.233 572.982 475.627 573.7C476.573 575.421 477.837 577.585 479.544 579.526C495.544 598.125 520.904 606.5 553.7 606.5C576.97 606.5 595.746 600.318 608.604 586.699C621.385 573.16 627.1 553.552 627.1 529.3C627.1 502.685 620.276 481.27 605.403 466.397L605.393 466.386L605.383 466.376C591.284 452.386 566.525 438.434 532.141 424.359L532.054 424.323L531.966 424.29C485.621 406.663 449.426 387.018 423.165 365.409L403.657 349.355L411.246 373.453L472.346 567.453Z"
		stroke="#B3E029" stroke-width="15" />
</svg>