<svg width="84" height="84" viewBox="0 0 84 84" fill="none" xmlns="http://www.w3.org/2000/svg">
<path fill-rule="evenodd" clip-rule="evenodd" d="M59.5 52.5V59.5H24.5V52.5H59.5ZM69.6471 35L55.6471 49L41.6471 35L46.5471 30.1L52.1471 35.525V21H59.1471V35.525L64.7471 30.1L69.6471 35ZM28.35 74.242C32.6083 76.0807 37.1583 77 42 77C46.8417 77 51.3917 76.0807 55.65 74.242C59.9083 72.4057 63.6125 69.9125 66.7625 66.7625C69.9125 63.6125 72.4057 59.9083 74.242 55.65C76.0807 51.3917 77 46.8417 77 42C77 37.1583 76.0807 32.6083 74.242 28.35C72.4057 24.0917 69.9125 20.3875 66.7625 17.2375C63.6125 14.0875 59.9083 11.5932 55.65 9.7545C51.3917 7.91817 46.8417 7 42 7C37.1583 7 32.6083 7.91817 28.35 9.7545C24.0917 11.5932 20.3875 14.0875 17.2375 17.2375C14.0875 20.3875 11.5943 24.0917 9.758 28.35C7.91933 32.6083 7 37.1583 7 42C7 46.8417 7.91933 51.3917 9.758 55.65C11.5943 59.9083 14.0875 63.6125 17.2375 66.7625C20.3875 69.9125 24.0917 72.4057 28.35 74.242ZM28.8065 22.2881C35.2441 17.8223 44.302 25.7961 39.7834 33.536V33.536C41.4349 37.2328 40.6705 41.2488 37.3394 43.5776L31.2171 47.7219C24.5155 52.2756 15.7199 43.7499 20.2402 36.4693C18.4323 32.4215 19.7195 28.4825 22.6842 26.4325L28.8065 22.2881ZM30.5687 24.9705L24.4554 29.1125C19.5197 32.8069 24.5939 40.4189 29.7735 37.2049L32.1173 35.6248C33.6017 34.6898 35.2205 36.8629 33.7124 38.0636L27.6012 42.2056C26.6498 42.8387 25.1831 42.0884 25.4134 40.545C24.3706 40.2425 23.3975 39.7011 22.4814 38.9648C20.7569 43.529 25.7708 47.5357 29.4548 45.0347L35.5683 40.8927C40.4418 37.1986 35.483 29.6611 30.2435 32.8003L27.9087 34.3805C26.4115 35.3399 24.7964 33.0534 26.3112 31.9417L32.438 27.8139C33.4598 27.1199 34.9289 28.1166 34.6102 29.4603C35.4484 29.6916 36.5519 30.2051 37.5422 31.0404C39.2093 26.8814 34.5849 22.4178 30.5687 24.9705Z" fill="#FF3E00"/>
</svg>
